<?xml version="1.0" encoding="UTF-8"?>
<svg version="1.1" xmlns="http://www.w3.org/2000/svg" width="1024" height="1024">
<path d="M0 0 C8.40598949 6.28110502 14.80505511 14.43628659 16.8125 24.875 C18.12815781 37.30326749 17.09771772 48.25008726 9.625 58.625 C5.94244935 63.04884331 1.67961156 66.79216559 -3.1875 69.875 C-3.8475 69.875 -4.5075 69.875 -5.1875 69.875 C-5.1875 97.265 -5.1875 124.655 -5.1875 152.875 C4.3825 152.875 13.9525 152.875 23.8125 152.875 C23.8125 153.535 23.8125 154.195 23.8125 154.875 C24.99714844 154.83375 26.18179688 154.7925 27.40234375 154.75 C34.14097897 154.75 40.72662185 155.86839134 47.375 156.875 C48.66986328 157.06578125 49.96472656 157.2565625 51.29882812 157.453125 C54.47095229 157.92133521 57.64207613 158.39543473 60.8125 158.875 C60.8125 159.535 60.8125 160.195 60.8125 160.875 C61.53953125 160.91238281 62.2665625 160.94976562 63.015625 160.98828125 C70.60357825 161.48441665 77.4954669 162.87495608 84.8125 164.875 C86.35480624 165.26693921 87.89783078 165.65605834 89.44140625 166.04296875 C97.04039653 167.96348575 104.48500803 169.86161832 111.69921875 172.9765625 C114.55914565 174.19242791 117.48732061 175.12757103 120.44140625 176.0859375 C124.13283608 177.31438697 127.77829514 178.66584779 131.4296875 180.0078125 C133.21432866 180.65730486 135.0108047 181.2744349 136.8125 181.875 C136.8125 182.535 136.8125 183.195 136.8125 183.875 C137.49054687 184.03355469 138.16859375 184.19210938 138.8671875 184.35546875 C144.91662343 185.87201709 150.22015052 187.84338421 155.71875 190.7890625 C157.90743204 191.99334965 157.90743204 191.99334965 160.8125 192.875 C160.8125 193.535 160.8125 194.195 160.8125 194.875 C161.4725 194.9575 162.1325 195.04 162.8125 195.125 C166.82312238 196.1276556 170.16393398 197.96593964 173.8125 199.875 C175.64426281 200.79480101 177.47761212 201.71144903 179.3125 202.625 C180.8125 203.375 182.3125 204.125 183.8125 204.875 C183.8125 205.535 183.8125 206.195 183.8125 206.875 C184.72 207.16375 185.6275 207.4525 186.5625 207.75 C189.13452908 208.64031776 191.42596766 209.58994413 193.8125 210.875 C193.8125 211.535 193.8125 212.195 193.8125 212.875 C194.76125 213.184375 195.71 213.49375 196.6875 213.8125 C199.8125 214.875 199.8125 214.875 201.8125 215.875 C201.8125 216.535 201.8125 217.195 201.8125 217.875 C202.72 218.16375 203.6275 218.4525 204.5625 218.75 C208.93092705 220.26214783 211.57843872 221.64093872 214.8125 224.875 C216.21803798 225.80780448 217.62417772 226.73971785 219.03369141 227.66650391 C223.1028146 230.43100567 226.97395282 233.47881004 230.890625 236.453125 C233.93808119 238.75616441 236.98007417 241.02302912 240.17578125 243.1171875 C242.74014153 244.82676102 244.67864446 246.66756324 246.8125 248.875 C247.8025 249.535 248.7925 250.195 249.8125 250.875 C249.8125 251.535 249.8125 252.195 249.8125 252.875 C250.7096875 253.308125 250.7096875 253.308125 251.625 253.75 C253.8125 254.875 253.8125 254.875 256.8125 256.875 C256.8125 257.535 256.8125 258.195 256.8125 258.875 C257.68068359 259.26751953 257.68068359 259.26751953 258.56640625 259.66796875 C264.41044649 262.80850516 269.21882048 268.16647849 273.8125 272.875 C274.41835938 273.47054688 275.02421875 274.06609375 275.6484375 274.6796875 C279.64521401 278.61521073 283.44501171 282.64036739 287.07421875 286.91796875 C288.38426251 288.39287195 289.75826488 289.81132297 291.16015625 291.19921875 C294.11716902 294.18236124 296.84471278 297.30044532 299.5625 300.5 C300.08690674 301.11609131 300.61131348 301.73218262 301.15161133 302.36694336 C302.70839923 304.20031433 304.26077833 306.03734081 305.8125 307.875 C306.62589844 308.83277344 307.43929687 309.79054688 308.27734375 310.77734375 C313.02946873 316.46486065 317.3282708 322.35847357 321.4921875 328.48828125 C323.4739343 331.4033614 325.52568662 334.26152872 327.59716797 337.11328125 C346.8125 363.60503439 346.8125 363.60503439 346.8125 369.875 C347.4725 369.875 348.1325 369.875 348.8125 369.875 C349.98489638 372.21979276 351.15704454 374.56470578 352.328125 376.91015625 C353.29268538 378.83673869 354.26121719 380.76133973 355.234375 382.68359375 C359.26587152 390.67072529 363.07070922 398.74944454 366.8125 406.875 C367.38484375 408.09316406 367.38484375 408.09316406 367.96875 409.3359375 C370.53835748 414.91032792 372.55760009 420.64798761 374.578125 426.44140625 C375.91561094 430.16181808 377.41276599 433.78543562 379.015625 437.3984375 C379.8125 439.875 379.8125 439.875 380.8125 447.875 C412.4925 448.37 412.4925 448.37 444.8125 448.875 C444.8125 526.755 444.8125 604.635 444.8125 684.875 C426.3325 684.875 407.8525 684.875 388.8125 684.875 C388.4825 686.525 388.1525 688.175 387.8125 689.875 C387.06402954 692.99037774 386.2480188 696.08774803 385.4375 699.1875 C385.22867188 700.00412109 385.01984375 700.82074219 384.8046875 701.66210938 C383.60534053 706.25107414 382.21503211 710.66679846 380.49511719 715.08666992 C379.58089772 717.48175491 378.84258614 719.91470468 378.125 722.375 C377.74794922 723.65890625 377.74794922 723.65890625 377.36328125 724.96875 C377.18152344 725.5978125 376.99976563 726.226875 376.8125 726.875 C376.1525 726.875 375.4925 726.875 374.8125 726.875 C374.73 727.65875 374.6475 728.4425 374.5625 729.25 C373.5648894 734.07178458 371.71608483 738.34755501 369.8125 742.875 C369.4515625 743.7825 369.090625 744.69 368.71875 745.625 C365.50474129 753.61658924 361.71285249 761.2641996 357.80053711 768.92944336 C356.77239017 770.95398078 355.76037882 772.98607499 354.75 775.01953125 C352.24007406 780.04672032 349.52218997 784.95346337 346.8125 789.875 C346.24595703 790.93460938 346.24595703 790.93460938 345.66796875 792.015625 C339.82527573 802.83389759 333.38222267 813.32293231 325.4921875 822.765625 C323.20793322 825.6342234 321.5754409 828.66392907 319.8125 831.875 C318.50268985 833.56021599 317.16690147 835.22540847 315.8125 836.875 C315.19632813 837.63296875 314.58015625 838.3909375 313.9453125 839.171875 C312.05138067 841.48586175 310.15606623 843.79870613 308.25927734 846.11035156 C307.22488317 847.37201223 306.19146366 848.63447225 305.15869141 849.89746094 C284.58051846 875.06058523 284.58051846 875.06058523 274.8125 882.875 C273.12487149 884.5204378 271.4584651 886.18788577 269.8125 887.875 C251.99531245 905.90722257 251.99531245 905.90722257 242.8125 911.875 C242.1525 911.875 241.4925 911.875 240.8125 911.875 C240.4825 912.865 240.1525 913.855 239.8125 914.875 C238.47962143 915.79776209 237.13811474 916.70990802 235.76171875 917.56640625 C232.38668509 919.83221041 229.31216399 922.48431166 226.1796875 925.0703125 C224.09758489 926.65765806 222.1628376 927.75897536 219.8125 928.875 C219.338125 929.349375 218.86375 929.82375 218.375 930.3125 C216.39280045 932.29469955 214.27377517 933.54969798 211.8125 934.875 C211.1525 934.875 210.4925 934.875 209.8125 934.875 C209.8125 935.535 209.8125 936.195 209.8125 936.875 C209.33683594 937.13152344 208.86117187 937.38804687 208.37109375 937.65234375 C203.22102639 940.46923142 198.16051226 943.42214522 193.125 946.4375 C192.49585693 946.81318115 191.86671387 947.1888623 191.21850586 947.57592773 C188.30285248 949.32900318 185.46576051 951.11346396 182.66015625 953.04296875 C180.05922905 954.71626759 177.87725834 955.73416414 174.9375 956.625 C174.15632812 956.86734375 173.37515625 957.1096875 172.5703125 957.359375 C171.70019531 957.61460937 171.70019531 957.61460937 170.8125 957.875 C170.8125 958.535 170.8125 959.195 170.8125 959.875 C170.0390625 960.18953125 169.265625 960.5040625 168.46875 960.828125 C161.61349262 963.62312131 161.61349262 963.62312131 154.9375 966.8125 C151.19249225 968.73646804 147.35923682 970.44525316 143.5 972.125 C142.30761719 972.64578125 141.11523438 973.1665625 139.88671875 973.703125 C136.8125 974.875 136.8125 974.875 133.8125 974.875 C133.8125 975.535 133.8125 976.195 133.8125 976.875 C132.8225 977.20113281 131.8325 977.52726563 130.8125 977.86328125 C122.60838087 980.54585633 122.60838087 980.54585633 114.5 983.5 C110.80296862 984.87855407 107.09194517 986.02998066 103.3046875 987.12890625 C101.51649771 987.66424206 99.74003852 988.23937137 97.97265625 988.83984375 C94.46858178 989.98765554 90.94172351 990.94042352 87.375 991.875 C83.68041958 992.84506419 79.99815407 993.81992958 76.3359375 994.90625 C72.54560086 995.94838247 68.74240272 996.69624658 64.875 997.375 C60.90982073 998.07496375 57.03455164 998.81469844 53.14453125 999.87109375 C47.34429758 1001.362846 41.38051723 1001.81555634 35.4375 1002.4375 C33.09598934 1002.68537979 30.75481995 1002.93651191 28.4140625 1003.19140625 C27.38619629 1003.29912354 26.35833008 1003.40684082 25.29931641 1003.51782227 C22.81812448 1003.74072501 22.81812448 1003.74072501 20.8125 1004.875 C17.86331905 1004.97366487 14.93773171 1005.01126779 11.98828125 1005.00439453 C11.07436615 1005.00614685 10.16045105 1005.00789917 9.21884155 1005.00970459 C6.18754191 1005.01411816 3.15630027 1005.01118684 0.125 1005.0078125 C-1.97485363 1005.00848568 -4.07470718 1005.00945583 -6.17456055 1005.01071167 C-10.57959738 1005.01218797 -14.98461396 1005.01003624 -19.38964844 1005.00537109 C-25.04599113 1004.99967385 -30.70228637 1005.00295322 -36.35862732 1005.00894356 C-40.69592651 1005.01255098 -45.03321439 1005.01140974 -49.37051392 1005.00881577 C-51.45659389 1005.008147 -53.54267488 1005.00897317 -55.62875366 1005.01129532 C-58.54029068 1005.01382479 -61.45175004 1005.00997703 -64.36328125 1005.00439453 C-65.23191803 1005.00641876 -66.10055481 1005.00844299 -66.99551392 1005.01052856 C-72.95897228 1004.98926386 -72.95897228 1004.98926386 -75.1875 1003.875 C-77.52200684 1003.53527079 -79.86344322 1003.24271787 -82.20703125 1002.97265625 C-83.63608788 1002.80290411 -85.0651237 1002.63297667 -86.49414062 1002.46289062 C-88.74523677 1002.19931058 -90.9965442 1001.9378959 -93.24829102 1001.67993164 C-95.42279131 1001.42934933 -97.59614981 1001.17024001 -99.76953125 1000.91015625 C-101.07124268 1000.7594165 -102.3729541 1000.60867676 -103.71411133 1000.45336914 C-106.85451809 999.93044627 -109.28293536 999.11751851 -112.1875 997.875 C-114.26455512 997.39700816 -114.26455512 997.39700816 -116.33203125 997.12890625 C-117.47188477 996.95584961 -117.47188477 996.95584961 -118.63476562 996.77929688 C-120.19955807 996.5531708 -121.76466048 996.32917844 -123.33007812 996.10742188 C-127.93523732 995.40401781 -132.00118955 994.31555145 -136.32299805 992.58178711 C-139.05199903 991.54728955 -141.83425816 990.9682483 -144.6875 990.375 C-149.04541791 989.41214587 -153.10441534 988.29563622 -157.234375 986.62109375 C-159.5005056 985.75543186 -161.79151407 985.09960874 -164.125 984.4375 C-168.29942304 983.22102703 -172.13227128 981.62184554 -176.0703125 979.79296875 C-179.04961168 978.50120619 -182.04425792 977.67752989 -185.1875 976.875 C-185.1875 976.215 -185.1875 975.555 -185.1875 974.875 C-185.89261719 974.75898437 -186.59773438 974.64296875 -187.32421875 974.5234375 C-190.41751606 973.82290905 -193.09035338 972.7584317 -196 971.5 C-200.69217298 969.49901152 -205.39681736 967.62544173 -210.1875 965.875 C-210.1875 965.215 -210.1875 964.555 -210.1875 963.875 C-211.16589844 963.61976563 -211.16589844 963.61976563 -212.1640625 963.359375 C-217.55895775 961.86344534 -221.59946831 960.16641404 -226.1875 956.875 C-227.44650716 956.20640519 -228.71849398 955.561888 -230 954.9375 C-235.70275765 952.15699675 -241.31830848 949.20766549 -246.5625 945.625 C-249.12720226 943.74892291 -249.12720226 943.74892291 -252.1875 942.875 C-252.620625 942.42125 -253.05375 941.9675 -253.5 941.5 C-255.77474569 939.30950415 -258.34396023 938.20198522 -261.1875 936.875 C-261.1875 936.215 -261.1875 935.555 -261.1875 934.875 C-261.93 934.58625 -262.6725 934.2975 -263.4375 934 C-265.75489797 933.05197356 -267.96667115 932.02654089 -270.1875 930.875 C-270.1875 930.215 -270.1875 929.555 -270.1875 928.875 C-270.8475 928.66875 -271.5075 928.4625 -272.1875 928.25 C-279.48594595 924.90487894 -285.49403224 918.99014558 -291.63671875 913.91796875 C-293.5947719 912.3497271 -295.51725084 910.91252667 -297.625 909.5625 C-300.19544816 907.86976585 -302.04922504 906.07807117 -304.1875 903.875 C-305.8598809 902.40038137 -307.55878466 900.95943407 -309.2578125 899.515625 C-314.4122541 895.13330623 -319.46419376 890.72596317 -324.1875 885.875 C-325.0125 885.05 -325.8375 884.225 -326.6875 883.375 C-327.5125 882.55 -328.3375 881.725 -329.1875 880.875 C-330.0125 880.070625 -330.8375 879.26625 -331.6875 878.4375 C-334.35458012 875.70374288 -336.74314538 872.80822554 -339.1875 869.875 C-339.93 869.1325 -340.6725 868.39 -341.4375 867.625 C-347.54290993 861.51959007 -353.19337752 855.05872115 -358.4140625 848.18359375 C-361.08798915 844.70277734 -363.89104415 841.32743887 -366.68359375 837.94140625 C-368.1875 835.875 -368.1875 835.875 -368.1875 833.875 C-368.8475 833.875 -369.5075 833.875 -370.1875 833.875 C-371.44921875 832.2578125 -371.44921875 832.2578125 -372.875 830 C-376.7799099 823.94691228 -380.70984302 817.86276283 -385.3125 812.3125 C-387.51130388 809.45405496 -389.17326318 806.46253689 -390.8828125 803.29296875 C-392.62161186 800.07046335 -394.44866477 796.89936793 -396.26953125 793.72265625 C-397.1875 791.875 -397.1875 791.875 -397.1875 789.875 C-397.8475 789.875 -398.5075 789.875 -399.1875 789.875 C-400.57656435 787.0968713 -401.96510216 784.31849238 -403.3515625 781.5390625 C-404.5854913 779.06987091 -405.83157018 776.60730433 -407.0859375 774.1484375 C-415.11562701 758.34924283 -422.22201304 742.21586348 -428.18359375 725.5234375 C-429.10393267 723.09546168 -430.13710604 720.78177094 -431.25 718.4375 C-434.00747386 712.41029429 -436.1875 705.53531033 -436.1875 698.875 C-436.8475 698.875 -437.5075 698.875 -438.1875 698.875 C-438.52769152 697.48082227 -438.85931779 696.08455342 -439.1875 694.6875 C-439.373125 693.91019531 -439.55875 693.13289062 -439.75 692.33203125 C-440.1875 689.875 -440.1875 689.875 -440.1875 684.875 C-458.3375 684.875 -476.4875 684.875 -495.1875 684.875 C-495.1875 606.995 -495.1875 529.115 -495.1875 448.875 C-475.0575 448.545 -454.9275 448.215 -434.1875 447.875 C-432.2075 442.265 -430.2275 436.655 -428.1875 430.875 C-423.51091982 418.08598482 -418.2700641 405.94949589 -412.14697266 393.8125 C-409.34033562 388.23409099 -406.70588977 382.58980756 -404.1875 376.875 C-403.5275 376.875 -402.8675 376.875 -402.1875 376.875 C-401.1975 373.905 -400.2075 370.935 -399.1875 367.875 C-398.5275 367.875 -397.8675 367.875 -397.1875 367.875 C-396.94257813 367.03324219 -396.69765625 366.19148438 -396.4453125 365.32421875 C-395.0489755 361.49513311 -393.18220677 358.14573332 -391.0625 354.6875 C-390.66361572 354.02967529 -390.26473145 353.37185059 -389.85375977 352.6940918 C-386.85677035 347.81545128 -383.616335 343.1719618 -380.17578125 338.59375 C-377.21887209 334.55051076 -374.54531484 330.33635514 -371.8515625 326.11328125 C-371.30242187 325.37464844 -370.75328125 324.63601563 -370.1875 323.875 C-369.5275 323.875 -368.8675 323.875 -368.1875 323.875 C-367.96191406 323.17632812 -367.73632812 322.47765625 -367.50390625 321.7578125 C-365.90125676 318.24815278 -363.65348036 315.61253632 -361.125 312.75 C-360.13071774 311.60094584 -359.13724079 310.45119441 -358.14453125 309.30078125 C-357.64775879 308.7279541 -357.15098633 308.15512695 -356.63916016 307.56494141 C-354.48549283 305.05776259 -352.39900093 302.50091543 -350.3125 299.9375 C-349.58804688 299.04933594 -348.86359375 298.16117187 -348.1171875 297.24609375 C-346.97552985 295.84328769 -345.83460394 294.4398847 -344.6953125 293.03515625 C-342.02898381 289.78091036 -339.16924446 286.83996952 -336.1875 283.875 C-335.09905646 282.76550275 -334.01187655 281.65476482 -332.92578125 280.54296875 C-331.78391694 279.38275071 -330.64198901 278.22259529 -329.5 277.0625 C-328.91927734 276.46501953 -328.33855469 275.86753906 -327.74023438 275.25195312 C-326.26024424 273.75485327 -324.72767218 272.31011269 -323.1875 270.875 C-322.5275 270.875 -321.8675 270.875 -321.1875 270.875 C-320.8471875 270.0396875 -320.8471875 270.0396875 -320.5 269.1875 C-317.41436893 263.75091193 -311.89572333 259.78418281 -307.1875 255.75 C-306.58421875 255.22535156 -305.9809375 254.70070313 -305.359375 254.16015625 C-302.11014681 251.37005813 -298.91709549 249.01098018 -295.1875 246.875 C-294.589375 246.276875 -293.99125 245.67875 -293.375 245.0625 C-290.84138124 242.52888124 -288.09444702 240.51160609 -285.2109375 238.39453125 C-283.39192584 237.0285167 -281.66117414 235.60805973 -279.9375 234.125 C-277.66210384 232.26331224 -275.78919028 231.13098841 -273.1875 229.875 C-272.713125 229.400625 -272.23875 228.92625 -271.75 228.4375 C-269.76780045 226.45530045 -267.64877517 225.20030202 -265.1875 223.875 C-264.5275 223.875 -263.8675 223.875 -263.1875 223.875 C-263.1875 223.215 -263.1875 222.555 -263.1875 221.875 C-262.64222656 221.58367187 -262.09695313 221.29234375 -261.53515625 220.9921875 C-257.64756429 218.87893238 -253.88225857 216.71710864 -250.25 214.1875 C-221.80523256 194.875 -221.80523256 194.875 -212.1875 194.875 C-212.1875 194.215 -212.1875 193.555 -212.1875 192.875 C-206.32159436 190.41575433 -200.45199028 187.96479209 -194.5625 185.5625 C-193.76585937 185.23636719 -192.96921875 184.91023437 -192.1484375 184.57421875 C-190.1875 183.875 -190.1875 183.875 -188.1875 183.875 C-188.1875 183.215 -188.1875 182.555 -188.1875 181.875 C-187.40246094 181.62105469 -186.61742187 181.36710938 -185.80859375 181.10546875 C-179.20193619 178.94700758 -179.20193619 178.94700758 -172.75 176.375 C-168.37253157 174.5318554 -163.90954953 173.2042391 -159.36328125 171.83984375 C-156.88539053 171.08702824 -154.44391658 170.29070165 -152 169.4375 C-124.55978921 160.20622761 -124.55978921 160.20622761 -112.1875 160.875 C-112.1875 160.215 -112.1875 159.555 -112.1875 158.875 C-107.87541053 158.22640622 -103.56275866 157.58162778 -99.25 156.9375 C-98.03763672 156.75509766 -96.82527344 156.57269531 -95.57617188 156.38476562 C-90.34677729 155.60531657 -85.13199676 154.84125106 -79.87109375 154.30859375 C-76.39052664 154.28455864 -76.39052664 154.28455864 -75.1875 152.875 C-65.9475 152.875 -56.7075 152.875 -47.1875 152.875 C-47.1875 125.485 -47.1875 98.095 -47.1875 69.875 C-48.8375 69.215 -50.4875 68.555 -52.1875 67.875 C-58.17776657 63.50538774 -62.91384942 58.53784177 -66.1875 51.875 C-66.50589844 51.25753906 -66.82429688 50.64007813 -67.15234375 50.00390625 C-71.00989158 40.88444986 -70.66842444 28.11331002 -67.625 18.8125 C-62.61743385 7.37914093 -53.63412797 -0.62094821 -42.23046875 -5.3984375 C-28.25748788 -10.3677959 -12.2250861 -7.79971557 0 0 Z " fill="#888888" transform="translate(538.1875,13.125)"/>
<path d="M0 0 C73.26 0 146.52 0 222 0 C222 27.39 222 54.78 222 83 C148.74 83 75.48 83 0 83 C0 55.61 0 28.22 0 0 Z " fill="#00FF41" transform="translate(579,528)"/>
<path d="M0 0 C73.26 0 146.52 0 222 0 C222 27.39 222 54.78 222 83 C148.74 83 75.48 83 0 83 C0 55.61 0 28.22 0 0 Z " fill="#00FF41" transform="translate(226,528)"/>
</svg>
